<svg width="400" height="300" viewBox="0 0 400 300" fill="none" xmlns="http://www.w3.org/2000/svg">
  <rect width="400" height="300" rx="12" fill="#E8F5E9"/>
  <circle cx="200" cy="150" r="100" fill="#C8E6C9" opacity="0.5"/>
  <!-- Leaf 1 -->
  <path d="M160 170 C140 140 140 100 180 100 C210 100 220 130 190 170 Z" fill="#4CAF50" transform="rotate(-20 180 135)"/>
  <path d="M175 145 C185 130 195 120 180 100" stroke="#81C784" stroke-width="2" stroke-linecap="round" fill="none" transform="rotate(-20 180 135)"/>
  <!-- Leaf 2 -->
  <path d="M220 180 C200 150 200 110 240 110 C270 110 280 140 250 180 Z" fill="#2E7D32" transform="rotate(15 240 145)"/>
  <path d="M235 155 C245 140 255 130 240 110" stroke="#4CAF50" stroke-width="2" stroke-linecap="round" fill="none" transform="rotate(15 240 145)"/>
  <!-- Text -->
  <text x="200" y="270" text-anchor="middle" font-family="'Outfit', sans-serif" font-size="14" font-weight="600" fill="#1B5E20">Baby Spinach</text>
</svg>
