<svg width="400" height="300" viewBox="0 0 400 300" fill="none" xmlns="http://www.w3.org/2000/svg">
  <rect width="400" height="300" rx="12" fill="#FBF8F5"/>
  <circle cx="200" cy="150" r="100" fill="#EFEBE9" opacity="0.6"/>
  <!-- Tart Crust -->
  <path d="M200 60 C130 60 110 90 110 150 C110 210 130 240 200 240 C270 240 290 210 290 150 C290 90 270 60 200 60 Z" fill="#D7CCC8" stroke="#8D6E63" stroke-width="4" stroke-dasharray="10 6"/>
  <path d="M200 70 C140 70 120 95 120 150 C120 205 140 230 200 230 C260 230 280 205 280 150 C280 95 260 70 200 70 Z" fill="#FFE082"/>
  <!-- Blueberry details -->
  <circle cx="170" cy="130" r="12" fill="#3F51B5"/>
  <circle cx="173" cy="127" r="3" fill="#FFF" opacity="0.5"/>
  
  <circle cx="200" cy="120" r="12" fill="#303F9F"/>
  <circle cx="203" cy="117" r="3" fill="#FFF" opacity="0.5"/>

  <circle cx="230" cy="135" r="12" fill="#3F51B5"/>
  <circle cx="233" cy="132" r="3" fill="#FFF" opacity="0.5"/>
  
  <circle cx="185" cy="160" r="12" fill="#1A237E"/>
  <circle cx="188" cy="157" r="3" fill="#FFF" opacity="0.5"/>

  <circle cx="215" cy="165" r="12" fill="#303F9F"/>
  <circle cx="218" cy="162" r="3" fill="#FFF" opacity="0.5"/>
  <!-- Text -->
  <text x="200" y="270" text-anchor="middle" font-family="'Outfit', sans-serif" font-size="14" font-weight="600" fill="#3F51B5">Blueberry Tart</text>
</svg>
